<?xml version="1.0"?>
<svg width="100" height="100" xmlns="http://www.w3.org/2000/svg" xmlns:svg="http://www.w3.org/2000/svg">
 <g class="layer">
  <title>Layer 1</title>
  <path d="m407.27,1184.53a5.43,5.43 0 0 1 -1.04,0.09a2.45,2.45 0 0 1 -2.18,-2.92a11.25,11.25 0 0 1 1.58,-4.05c0.47,-0.73 1.03,-1.42 1.45,-2.18a14.74,14.74 0 0 0 1.53,-3.12a140.23,140.23 0 0 1 5.68,-15.59c0.66,-1.62 1.37,-3.22 1.94,-4.88a8,8 0 0 1 2.43,-3.55c3.47,-2.98 6.88,-6.03 10.37,-8.98a205.25,205.25 0 0 0 20.01,-19.56c1.37,-1.52 2.69,-3.07 4.05,-4.6a42.67,42.67 0 0 1 6.05,-5.47a68.57,68.57 0 0 0 6.9,-5.83a15.92,15.92 0 0 1 1.54,-1.34a30.91,30.91 0 0 0 6.66,-6.9c2.23,-3.24 2.78,-2.54 5.65,-2.4a5.11,5.11 0 0 1 1.68,0.41c2.33,0.97 4.66,1.96 6.96,3a16.74,16.74 0 0 1 3.87,2.58a8.68,8.68 0 0 1 2.48,3.2a39.63,39.63 0 0 0 3.76,6.23c1.01,1.54 1.99,3.11 2.92,4.7a6.41,6.41 0 0 1 0.85,2.15a9.16,9.16 0 0 0 1.28,3.8a2.4,2.4 0 0 1 -0.3,2.75a22.41,22.41 0 0 1 -2.46,2.86c-1.93,1.78 -3.96,3.45 -5.94,5.18c-3.89,3.38 -7.8,6.74 -11.64,10.18c-3.47,3.12 -6.81,6.38 -10.28,9.5c-2.83,2.53 -5.7,5 -8.65,7.39c-4.69,3.8 -9.4,7.55 -13.84,11.64c-1.57,1.45 -3.21,2.82 -4.85,4.2a10.93,10.93 0 0 1 -1.67,1.16c-1.27,0.71 -2.56,1.4 -3.87,2.03a7.97,7.97 0 0 1 -2.46,0.86c-6.02,0.62 -11.75,2.55 -17.63,3.79a28.53,28.53 0 0 0 -7.13,2.32a10.97,10.97 0 0 1 -5.7,1.35zm73.82,-82.61a1.14,1.14 0 0 0 -0.13,-0.21c-0.03,-0.04 -0.1,-0.04 -0.15,-0.06c0.12,0.06 0.24,0.13 0.36,0.19c-0.21,0.86 0.42,1.41 0.78,2.05a0.72,0.72 0 0 0 0.98,0.3a1.86,1.86 0 0 0 0.86,-0.68c0.22,-0.46 -0.31,-0.61 -0.6,-0.74c-0.68,-0.32 -1.39,-0.57 -2.1,-0.85zm-48.46,55.43c0.04,0.83 0.05,1.22 0.09,1.6a1.34,1.34 0 0 0 1.34,1.27c0.29,0.02 0.58,0.01 0.87,0.03a2.83,2.83 0 0 0 2.71,-1.33a32.78,32.78 0 0 1 3.02,-3.53a109.44,109.44 0 0 1 12.6,-10.8q11.03,-8.35 22.01,-16.77q2.09,-1.59 4.09,-3.29c1.71,-1.43 3.34,-2.96 5.07,-4.37s3.58,-2.68 5.33,-4.07c3.34,-2.65 3,-2.53 0.42,-5.58a1.3,1.3 0 0 0 -1.82,-0.31a37.34,37.34 0 0 0 -6.58,4.28a43.02,43.02 0 0 1 -7.33,4.74a31.75,31.75 0 0 0 -7.54,5.44c-6.23,5.98 -12.48,11.96 -18.94,17.71c-4.64,4.13 -9,8.59 -13.91,12.41a3.04,3.04 0 0 0 -1.43,2.57zm11.57,9.97a2.37,2.37 0 0 0 0.74,-0.33c0.99,-0.94 1.96,-1.9 2.9,-2.87a81.02,81.02 0 0 1 8.94,-7.9a180.09,180.09 0 0 0 15.87,-13.7c5.92,-5.76 12.09,-11.24 18.4,-16.57c2.08,-1.75 4.06,-3.61 6.07,-5.44a4.41,4.41 0 0 0 0.89,-1.13a0.97,0.97 0 0 0 -0.06,-0.8a1.17,1.17 0 0 0 -1.93,-0.39c-2.96,2.37 -5.92,4.73 -8.84,7.13c-1.95,1.6 -3.76,3.38 -5.75,4.93c-5.98,4.64 -12.03,9.21 -18.04,13.81c-5.01,3.84 -10.03,7.66 -15,11.54c-1.99,1.56 -3.84,3.28 -5.76,4.91a1.67,1.67 0 0 0 -0.47,2.08c0.43,1.19 0.75,2.4 1.14,3.6a2.98,2.98 0 0 0 0.39,0.78a1.94,1.94 0 0 0 0.51,0.35zm-4.14,3.1c-0.04,-0.09 -0.08,-0.18 -0.12,-0.27a27.87,27.87 0 0 1 -1.31,-3.54a2.69,2.69 0 0 0 -2.65,-2.26c-1.06,-0.1 -2.13,-0.1 -3.2,-0.17c-2.75,-0.21 -4.13,-0.25 -4.17,-4.2a3.49,3.49 0 0 0 -1.94,-3.32q-2.94,-1.6 -5.92,-3.13a1.08,1.08 0 0 0 -1.49,0.47a4.75,4.75 0 0 0 -0.53,1.34a76.73,76.73 0 0 1 -2.64,10.42a3.15,3.15 0 0 0 0.59,3.25a18.42,18.42 0 0 0 2.74,2.6a5.43,5.43 0 0 1 2.21,2.96c0.21,0.77 0.61,0.92 1.3,0.73c1.95,-0.55 3.89,-1.16 5.87,-1.65c2.55,-0.61 5.12,-1.1 7.66,-1.7c1.12,-0.27 2.21,-0.69 3.3,-1.08c0.14,-0.04 0.2,-0.29 0.3,-0.45zm-3.14,-30.05a1.77,1.77 0 0 0 -2.25,0.6c-0.68,0.68 -1.38,1.36 -2.02,2.09a1.4,1.4 0 0 0 0.47,2.2a1.15,1.15 0 0 0 1.36,0.02c1.5,-1.06 3.03,-2.09 4.44,-3.25c2.32,-1.91 4.56,-3.92 6.8,-5.9a18.28,18.28 0 0 0 1.35,-1.46c-0.42,-0.97 -1.37,-0.39 -2.02,-0.69c-0.17,-0.08 -0.4,-0.06 -0.55,-0.15a1.87,1.87 0 0 0 -2.57,0.5c-0.46,0.5 -0.96,0.97 -1.44,1.43a1.8,1.8 0 0 0 -0.59,2.31a1.3,1.3 0 0 1 -0.94,1.81c-0.71,0.24 -1.47,0.35 -2.04,0.48l0,0.01zm32.99,-33.16a2.09,2.09 0 0 0 -0.51,0.22c-0.3,0.24 -0.57,0.51 -0.84,0.78c-1.14,1.13 -1.11,1.27 0.2,2.03a8.72,8.72 0 0 1 3.01,2.14c0.47,0.65 0.75,0.59 1.25,-0.18c1.18,-1.83 1.85,-1.56 -0.56,-3.22c-0.71,-0.49 -1.35,-1.07 -2.03,-1.59a1.79,1.79 0 0 0 -0.52,-0.18zm-6.03,6.28c-1.2,-0.22 -1.35,-0.18 -1.77,0.32c-0.74,0.89 -1.47,1.78 -2.19,2.68a0.73,0.73 0 0 0 -0.09,0.24c0.18,0.04 0.45,0.19 0.51,0.12a3.17,3.17 0 0 1 3.2,-0.81a5.36,5.36 0 0 1 2.06,0.95a0.99,0.99 0 0 0 1.48,-0.08c0.07,-0.06 0.15,-0.12 0.23,-0.18c1.16,-0.89 1.12,-1.23 -0.19,-2.03a8.36,8.36 0 0 0 -3.24,-1.21zm11.3,-10.91c-0.31,0.24 -0.7,0.51 -1.05,0.82c-0.37,0.33 -0.4,0.7 -0.04,0.95q1.91,1.3 3.86,2.55c0.61,0.4 1.1,0.03 1.55,-0.35a0.61,0.61 0 0 0 0.06,-0.98c-1.24,-0.92 -2.48,-1.83 -3.72,-2.74a3.22,3.22 0 0 0 -0.66,-0.25zm-14.33,20.21c-0.02,-0.16 -0.01,-0.26 -0.05,-0.31c-0.05,-0.07 -0.16,-0.18 -0.22,-0.16a4.68,4.68 0 0 1 -4.7,-1.47a0.3,0.3 0 0 0 -0.25,-0.03a0.87,0.87 0 0 0 -0.25,0.15a0.84,0.84 0 0 0 -0.25,1.23a6.21,6.21 0 0 1 2.07,3.06c0.08,0.35 0.4,0.31 0.65,0.14c0.31,-0.23 0.6,-0.48 0.9,-0.73c0.72,-0.64 1.43,-1.28 2.1,-1.88zm-8.3,7.07a1.49,1.49 0 0 0 0.52,-0.19c0.5,-0.43 0.99,-0.89 1.47,-1.36c0.34,-0.33 0.28,-0.65 -0.08,-0.94c-0.59,-0.48 -1.16,-0.99 -1.77,-1.46a3.19,3.19 0 0 0 -0.76,-0.37c-0.33,-0.14 -1.03,0.29 -1.33,0.88a0.79,0.79 0 0 0 0.08,0.72a5.67,5.67 0 0 1 1.45,2.43c0.04,0.12 0.28,0.19 0.43,0.29l-0.01,0zm-2.77,1.99c-0.03,0.05 -0.1,0.12 -0.08,0.15c0.03,0.07 0.1,0.12 0.16,0.18c0.03,-0.11 0.07,-0.22 0.1,-0.33l-0.18,0z" data-name=" pencil" fill-rule="evenodd" id="_pencil" transform="translate(-404 -1093.086)"/>
  <path d="m4,89c0.88,0 1.74,-0.18 2.57,0c0.84,0.18 1.52,0.89 2.43,1c0.8,0.1 1.48,0.78 2.36,1c0.82,0.21 1.39,0.62 2.14,0.98c0.77,0.36 1.31,0.75 1.93,1.02c0.85,0.38 1.88,-0.14 2.52,0.35c0.67,0.51 1.41,0.65 2.35,0.65c0.9,0 1.8,0 2.67,0c0.83,0 1.74,0 2.64,0c0.87,0 1.75,0 2.69,0c0.9,0 1.81,0.09 2.59,-0.09c0.79,-0.18 1.64,-0.59 2.48,-0.89c0.95,-0.34 1.67,-0.77 2.44,-1.11c0.74,-0.33 1.61,-0.78 2.5,-0.92c0.82,-0.13 1.47,-0.83 2.34,-0.99c0.92,-0.17 1.46,-0.55 2.24,-1c0.7,-0.41 1.48,-0.81 2.22,-1.22c0.67,-0.37 1.29,-1.19 2.1,-1.69c0.74,-0.46 1.28,-0.81 2.1,-1.09c0.81,-0.28 1.36,-0.64 2.2,-1.02c0.7,-0.31 1.36,-0.82 2.11,-1.02c0.85,-0.22 1.63,-0.77 2.49,-1.19c0.7,-0.34 1.55,-0.74 2.25,-0.77c1.02,-0.05 1.76,-0.46 2.65,-0.84c0.75,-0.32 1.73,0.02 2.6,-0.2c0.86,-0.22 1.49,-0.9 2.29,-0.96c0.94,-0.07 1.95,0.01 2.7,0c0.91,-0.01 1.61,-0.54 2.51,-0.88c0.85,-0.32 1.7,-0.12 2.6,-0.12c0.9,0 1.78,0 2.74,0c0.86,0 1.77,0 2.73,0c0.83,0 1.67,0 2.53,0c0.9,0 1.87,-0.32 2.69,0.01c0.76,0.31 1.16,0.71 1.96,0.99c0.75,0.26 1.14,0.9 1.65,1.35c0.6,0.53 1.21,1.03 2,1.48c0.78,0.44 1.31,0.54 1.96,1.17c0.6,0.58 0.75,1 1.07,1.57l0.68,0.42l0.32,0.58l0.68,0.42" fill="none" id="svg_1" stroke="#000000"/>
 </g>
</svg>