<?xml version="1.0"?>
<svg width="495.339" height="495.339" xmlns="http://www.w3.org/2000/svg" xmlns:svg="http://www.w3.org/2000/svg" version="1.1" xml:space="preserve">
 <g class="layer">
  <title>Layer 1</title>
  <path d="m196.3,405.26l277.15,-277.12c6.74,-6.75 6.74,-17.67 0,-24.41l-98.64,-98.67c-3.25,-3.24 -7.63,-5.06 -12.21,-5.06c-4.59,0 -8.95,1.82 -12.19,5.06l-277.15,277.15c-1.87,1.86 -3.27,4.12 -4.13,6.62l-51.37,150c-2.13,6.23 -0.5,13.14 4.15,17.79c3.25,3.27 7.64,5.02 12.12,5.04c0.55,1.04 1.37,2.02 2.58,2.86c8.88,6.19 18.16,10.99 27.63,15.19c44.11,19.55 93.69,18.91 141.61,8.21c36.27,-8.12 70.65,-22.53 106.01,-33.78c48.12,-15.31 100.54,-22.66 150.54,-28.53c11.06,-1.31 9.22,-18.47 -1.84,-17.17c-68.01,8 -134.78,21.63 -199.28,44.71c-54.26,19.4 -116.51,34.87 -172.09,18.01c-11.87,-3.59 -23.42,-8.72 -34.51,-15.54l135.02,-46.23c2.47,-0.86 4.76,-2.27 6.6,-4.13zm-8.79,-40.01l-18.32,-18.3l249.37,-249.29l18.26,18.27l-249.31,249.32zm175.09,-323.57l18.3,18.3l-249.34,249.35l-18.31,-18.31l249.35,-249.34zm-270.88,364.76l-19.66,-19.65l22.5,-65.67l62.82,62.84l-65.66,22.48z" id="svg_1"/>
  <ellipse cx="173.16" cy="470.16" fill="#ffffff" id="svg_2" rx="142.5" ry="26.5" stroke="#000000" stroke-width="0"/>
  <ellipse cx="338.66" cy="428.66" fill="#ffffff" id="svg_3" rx="142.5" ry="42.5" stroke="#000000" stroke-width="0"/>
 </g>
</svg>